/** @file   buzzer.c
    @author Lucy Frengley
            Hayden Evans
            Penelope Keeling
            Michael Spurdle
            M. P. Hayes
    @date   25 April 2024
    @brief  TODO: Write a description
*/


#include "buzzer.h"
#include "target.h"

#define REST 0

const int16_t notes[NUM_NOTES] = {
  NOTE_CS4, NOTE_E4, NOTE_CS4, NOTE_CS4, NOTE_E4,
  NOTE_CS4, NOTE_CS4, NOTE_E4, NOTE_CS4, NOTE_DS4,
  NOTE_CS4, NOTE_CS4, NOTE_E4, NOTE_CS4,
  NOTE_B3,
  NOTE_CS4, NOTE_E4, NOTE_CS4, NOTE_CS4, NOTE_E4,
  NOTE_CS4, NOTE_DS4, NOTE_CS4, NOTE_E4,
  NOTE_B3,
  NOTE_E4, NOTE_E4, NOTE_E4, NOTE_E4, NOTE_E4, NOTE_E4, NOTE_E4, NOTE_E4, NOTE_E4,
  NOTE_E4, NOTE_E4, NOTE_E4, NOTE_E4, NOTE_FS4, NOTE_GS4, NOTE_GS4,
  NOTE_GS4, NOTE_E4, NOTE_FS4, NOTE_B4, NOTE_GS4, NOTE_GS4, NOTE_GS4, NOTE_GS4, NOTE_GS4,
  NOTE_FS4, NOTE_FS4, NOTE_FS4, NOTE_GS4, NOTE_FS4, NOTE_FS4, NOTE_FS4, NOTE_FS4, NOTE_FS4, NOTE_GS4, NOTE_FS4,
  NOTE_E4, NOTE_CS4, NOTE_CS4, NOTE_GS4, NOTE_GS4,
  NOTE_GS4, NOTE_GS4, NOTE_GS4, NOTE_GS4, NOTE_GS4, NOTE_GS4, NOTE_GS4, NOTE_GS4, NOTE_GS4,
  NOTE_GS4, NOTE_B4, NOTE_GS4, NOTE_GS4, NOTE_FS4, NOTE_FS4, NOTE_E4, NOTE_GS4,
  NOTE_FS4, NOTE_E4, NOTE_E4, NOTE_E4, NOTE_B4, NOTE_GS4, NOTE_GS4, NOTE_GS4, NOTE_FS4,
  NOTE_FS4, NOTE_FS4, NOTE_FS4, NOTE_FS4, NOTE_FS4, NOTE_FS4, NOTE_FS4, NOTE_FS4,
  NOTE_E4, NOTE_CS4, NOTE_CS4, NOTE_CS4, NOTE_CS4, NOTE_CS4,
  NOTE_GS3, NOTE_B3,
  NOTE_CS4, NOTE_CS4, NOTE_FS4, NOTE_GS4, NOTE_E4, NOTE_FS4,
  NOTE_B3,
  NOTE_E4, NOTE_FS4, NOTE_GS4, NOTE_FS4, NOTE_E4, NOTE_CS4, NOTE_E4, NOTE_GS4,
  NOTE_FS4, NOTE_E4, NOTE_FS4, NOTE_CS4, NOTE_B4, NOTE_GS4, NOTE_GS4, NOTE_FS4, NOTE_FS4,
  NOTE_E4, NOTE_CS4, NOTE_E4, NOTE_FS4, NOTE_GS4, NOTE_FS4, NOTE_E4,
  NOTE_FS4, NOTE_E4, NOTE_CS4, NOTE_CS4,
  NOTE_B3,
  NOTE_CS4, NOTE_CS4, NOTE_FS4, NOTE_GS4, NOTE_E4, NOTE_FS4, NOTE_FS4,
  NOTE_B3,
  NOTE_FS4, NOTE_GS4, NOTE_FS4, NOTE_E4, NOTE_CS4, NOTE_E4, NOTE_GS4, NOTE_FS4,
  NOTE_E4, NOTE_FS4, NOTE_CS4, NOTE_B4, NOTE_GS4, NOTE_GS4, NOTE_FS4, NOTE_FS4, NOTE_E4,
  NOTE_CS4, NOTE_B4, NOTE_GS4, NOTE_GS4, NOTE_FS4, NOTE_FS4, NOTE_E4,
  NOTE_CS4, NOTE_CS4,
  NOTE_GS3, NOTE_B3,
  NOTE_E4, NOTE_FS4, NOTE_GS4, NOTE_FS4, NOTE_E4, NOTE_E4, NOTE_E4, NOTE_FS4, NOTE_FS4,
  NOTE_E4, NOTE_FS4, NOTE_GS4, NOTE_FS4, NOTE_E4, NOTE_E4, NOTE_E4, NOTE_FS4|
  NOTE_CS4, NOTE_E4, NOTE_FS4, NOTE_GS4, NOTE_CS4,
  NOTE_E4, NOTE_E4, NOTE_FS4, NOTE_FS4, NOTE_E4, NOTE_FS4, NOTE_GS4,
  NOTE_FS4, NOTE_E4, NOTE_E4, NOTE_FS4, NOTE_CS4, NOTE_CS4,
  NOTE_FS4, NOTE_GS4, NOTE_B4, NOTE_GS4, NOTE_FS4, NOTE_E4, NOTE_E4, NOTE_FS4,
  NOTE_E4, NOTE_FS4, NOTE_GS4, NOTE_FS4, NOTE_E4, NOTE_E4, NOTE_FS4,
  NOTE_CS4, NOTE_CS4, NOTE_CS4, NOTE_CS4, NOTE_CS4, NOTE_E4, NOTE_FS4, NOTE_GS4, NOTE_CS4, NOTE_E4,
  NOTE_FS4, NOTE_E4, NOTE_FS4, NOTE_E4, NOTE_FS4, NOTE_GS4,
  NOTE_FS4, NOTE_E4, NOTE_E4, NOTE_FS4, NOTE_CS4, NOTE_CS4, NOTE_CS4, NOTE_E4, NOTE_E4,
  NOTE_FS4, NOTE_FS4, NOTE_GS4, NOTE_GS4,
  NOTE_E4, NOTE_FS4, NOTE_GS4, NOTE_FS4, NOTE_E4, NOTE_E4, NOTE_FS4, NOTE_CS4, NOTE_CS4,
  NOTE_CS4, NOTE_E4, NOTE_E4, NOTE_FS4, NOTE_FS4, NOTE_GS4,
  NOTE_GS4, NOTE_E4, NOTE_FS4, NOTE_GS4, NOTE_FS4,
  NOTE_E4, NOTE_E4, NOTE_FS4, NOTE_CS4, NOTE_CS4, NOTE_CS4, NOTE_E4, NOTE_E4,
  NOTE_FS4, NOTE_FS4, NOTE_GS4, NOTE_GS4,
  NOTE_E4, NOTE_FS4, NOTE_GS4, NOTE_FS4, NOTE_E4, NOTE_E4, NOTE_FS4, NOTE_CS4, NOTE_CS4,
  NOTE_CS4, NOTE_CS4, NOTE_CS4, NOTE_CS4, NOTE_E4, NOTE_FS4, NOTE_GS4, NOTE_CS4, NOTE_E4, NOTE_FS4,
  NOTE_CS4,
};

const uint8_t durations[NUM_NOTES] = {
2,2,4,2,2,4,2,2,4,2,2,2,2,2,2,2,2,4,2,2,4,2,2,2,2,8,8,4,4,8,8,8,8,8,8,8,2,8,8,4,2,8,8,4,8,8,8,4,4,8,8,8,8,8,4,8,4,8,8,8,8,4,2,8,8,8,8,4,8,8,8,8,8,8,2,8,4,8,8,8,8,8,2,4,8,8,2,4,8,8,8,8,8,8,2,8,8,4,4,4,8,8,2,4,4,2,4,2,2,4,8,8,8,2,2,8,4,8,4,4,4,4,8,8,8,8,2,8,8,4,8,8,4,2,8,4,8,4,4,4,4,2,2,2,2,4,8,8,8,2,2,2,4,8,4,4,4,4,8,8,8,8,2,8,8,4,8,8,4,2,8,8,4,8,8,4,2,2,4,2,8,8,4,8,8,4,8,8,2,8,8,4,8,8,4,8,8,2,8,8,4,4,4,8,8,2,8,8,4,8,8,8,4,8,2,4,4,8,8,4,4,8,2,8,8,4,4,4,8,8,4,8,8,8,8,8,8,4,4,4,4,8,2,8,8,4,8,8,8,4,8,4,4,4,4,4,4,4,2,8,8,4,8,8,8,4,8,4,4,4,4,4,4,4,2,8,8,4,8,8,8,4,8,4,4,4,4,4,4,4,2,8,8,4,8,8,8,4,8,4,8,8,8,8,8,8,4,4,4,4
};

uint16_t song[LEN_SONG] = {

};


static pwm_t PWM_buzzer;
#define INIT_BUZZ_PWM_FREQ 1000 //hz
static pwm_cfg_t pwm_buzz_config =
{
    .pio = BUZZ_PIO,
    .period = PWM_PERIOD_DIVISOR (INIT_BUZZ_PWM_FREQ),
    .duty = PWM_DUTY_DIVISOR (INIT_BUZZ_PWM_FREQ, 0),
    .align = PWM_ALIGN_LEFT,
    .polarity = PWM_POLARITY_LOW,
    .stop_state = PIO_OUTPUT_LOW
};

void init_buzzer (void) {
    // BUZZER = piezo_init(&piezo_cfg);
    PWM_buzzer = pwm_init (&pwm_buzz_config);
    if (! PWM_buzzer) {
        panic (LED_ERROR_PIO, 1);
    }
}


bool init_song (void) {
    for (int i=0; i<NUM_NOTES; i++) { // Iterate through the notes in the song
        int32_t note = notes[i];
        int32_t duration = durations[i];
        if (i + duration >= LEN_SONG) {
            return false;
        }
        for (int j=0; j<duration; j++) { // Write the note to the song array for the 'length' of the duration
            song[i+j] = note;
        }
    }
    return true;
}


static int32_t song_index = 0;


void play_next_freq (void) {
    // static uint32_t start_time_ms = 0
   
    int32_t freq = song[song_index];
    if (freq == REST) {
        pwm_duty_set(PWM_buzzer, PWM_DUTY_DIVISOR(INIT_BUZZ_PWM_FREQ, 0)); // stop the buzzer
    }
    pwm_duty_set(PWM_buzzer, PWM_DUTY_DIVISOR(freq, 100));
    song_index++;  
    if (song_index >= LEN_SONG) { // restart song
        song_index == 0;
    }
}

void reset_buzzer (void) {
    pwm_duty_set(PWM_buzzer, PWM_DUTY_DIVISOR(INIT_BUZZ_PWM_FREQ, 0));
    song_index = 0;
}